# Blender v2.80 (sub 75) OBJ File: ''
# www.blender.org
mtllib text.mtl
o Text
v 1.750000 0.000000 -0.542000
v 1.583000 0.000000 -0.379000
v 1.583000 0.000000 -0.369000
v 1.661000 0.000000 -0.369000
v 1.661000 0.000000 -0.132000
v 1.662020 0.000000 -0.112210
v 1.665079 0.000000 -0.093431
v 1.670172 0.000000 -0.075797
v 1.677296 0.000000 -0.059444
v 1.686449 0.000000 -0.044509
v 1.697625 0.000000 -0.031125
v 1.710822 0.000000 -0.019429
v 1.726037 0.000000 -0.009556
v 1.743266 0.000000 -0.001641
v 1.762505 0.000000 0.004181
v 1.783751 0.000000 0.007773
v 1.807000 0.000000 0.009000
v 1.814625 0.000000 0.008734
v 1.822917 0.000000 0.007958
v 1.831750 0.000000 0.006703
v 1.841000 0.000000 0.005000
v 1.850542 0.000000 0.002880
v 1.860250 0.000000 0.000375
v 1.870000 0.000000 -0.002484
v 1.879667 0.000000 -0.005667
v 1.889125 0.000000 -0.009141
v 1.898250 0.000000 -0.012875
v 1.906917 0.000000 -0.016839
v 1.915000 0.000000 -0.021000
v 1.915000 0.000000 -0.104000
v 1.906061 0.000000 -0.098729
v 1.897241 0.000000 -0.093917
v 1.888531 0.000000 -0.089563
v 1.879926 0.000000 -0.085667
v 1.871418 0.000000 -0.082229
v 1.863000 0.000000 -0.079250
v 1.854665 0.000000 -0.076729
v 1.846407 0.000000 -0.074667
v 1.838219 0.000000 -0.073063
v 1.830093 0.000000 -0.071917
v 1.822022 0.000000 -0.071229
v 1.814000 0.000000 -0.071000
v 1.807279 0.000000 -0.071326
v 1.800232 0.000000 -0.072356
v 1.793031 0.000000 -0.074172
v 1.785852 0.000000 -0.076852
v 1.778867 0.000000 -0.080476
v 1.772250 0.000000 -0.085125
v 1.766175 0.000000 -0.090878
v 1.760815 0.000000 -0.097815
v 1.756344 0.000000 -0.106016
v 1.752935 0.000000 -0.115560
v 1.750763 0.000000 -0.126528
v 1.750000 0.000000 -0.139000
v 1.750000 0.000000 -0.369000
v 1.892000 0.000000 -0.369000
v 1.892000 0.000000 -0.449000
v 1.750000 0.000000 -0.449000
v 1.570000 0.000000 -0.449000
v 1.456000 0.000000 -0.449000
v 1.328000 0.000000 -0.295000
v 1.195000 0.000000 -0.449000
v 1.083000 0.000000 -0.449000
v 1.272000 0.000000 -0.228000
v 1.083000 0.000000 0.000000
v 1.195000 0.000000 0.000000
v 1.328000 0.000000 -0.161000
v 1.469000 0.000000 0.000000
v 1.583000 0.000000 0.000000
v 1.385000 0.000000 -0.228000
v 1.042000 0.000000 -0.130000
v 1.029019 0.000000 -0.121795
v 1.016065 0.000000 -0.114194
v 1.003125 0.000000 -0.107219
v 0.990185 0.000000 -0.100889
v 0.977231 0.000000 -0.095226
v 0.964250 0.000000 -0.090250
v 0.951227 0.000000 -0.085983
v 0.938148 0.000000 -0.082444
v 0.925000 0.000000 -0.079656
v 0.911769 0.000000 -0.077639
v 0.898440 0.000000 -0.076413
v 0.885000 0.000000 -0.076000
v 0.864230 0.000000 -0.076957
v 0.844926 0.000000 -0.079819
v 0.827094 0.000000 -0.084578
v 0.810741 0.000000 -0.091222
v 0.795874 0.000000 -0.099741
v 0.782500 0.000000 -0.110125
v 0.770626 0.000000 -0.122363
v 0.760259 0.000000 -0.136444
v 0.751406 0.000000 -0.152359
v 0.744074 0.000000 -0.170097
v 0.738270 0.000000 -0.189648
v 0.734000 0.000000 -0.211000
v 1.050000 0.000000 -0.211000
v 1.048436 0.000000 -0.250731
v 1.043819 0.000000 -0.286935
v 1.036266 0.000000 -0.319625
v 1.025889 0.000000 -0.348815
v 1.012804 0.000000 -0.374519
v 0.997125 0.000000 -0.396750
v 0.978967 0.000000 -0.415523
v 0.958444 0.000000 -0.430852
v 0.935672 0.000000 -0.442750
v 0.910764 0.000000 -0.451232
v 0.883835 0.000000 -0.456310
v 0.855000 0.000000 -0.458000
v 0.824819 0.000000 -0.456111
v 0.796389 0.000000 -0.450556
v 0.769875 0.000000 -0.441500
v 0.745444 0.000000 -0.429111
v 0.723264 0.000000 -0.413556
v 0.703500 0.000000 -0.395000
v 0.686319 0.000000 -0.373611
v 0.671889 0.000000 -0.349556
v 0.660375 0.000000 -0.323000
v 0.651944 0.000000 -0.294111
v 0.646764 0.000000 -0.263056
v 0.645000 0.000000 -0.230000
v 0.646616 0.000000 -0.199249
v 0.651426 0.000000 -0.169241
v 0.659375 0.000000 -0.140344
v 0.670407 0.000000 -0.112926
v 0.684468 0.000000 -0.087355
v 0.701500 0.000000 -0.064000
v 0.721449 0.000000 -0.043228
v 0.744259 0.000000 -0.025407
v 0.769875 0.000000 -0.010906
v 0.798241 0.000000 -0.000093
v 0.829301 0.000000 0.006665
v 0.863000 0.000000 0.009000
v 0.881456 0.000000 0.008645
v 0.898898 0.000000 0.007574
v 0.915438 0.000000 0.005781
v 0.931185 0.000000 0.003259
v 0.946252 0.000000 0.000001
v 0.960750 0.000000 -0.004000
v 0.974789 0.000000 -0.008751
v 0.988482 0.000000 -0.014259
v 1.001938 0.000000 -0.020531
v 1.015269 0.000000 -0.027574
v 1.028586 0.000000 -0.035395
v 1.042000 0.000000 -0.044000
v 0.736000 0.000000 -0.270000
v 0.739603 0.000000 -0.287099
v 0.744407 0.000000 -0.302875
v 0.750406 0.000000 -0.317297
v 0.757593 0.000000 -0.330333
v 0.765960 0.000000 -0.341953
v 0.775500 0.000000 -0.352125
v 0.786207 0.000000 -0.360818
v 0.798074 0.000000 -0.368000
v 0.811094 0.000000 -0.373641
v 0.825259 0.000000 -0.377708
v 0.840564 0.000000 -0.380172
v 0.857000 0.000000 -0.381000
v 0.872243 0.000000 -0.380115
v 0.886445 0.000000 -0.377500
v 0.899563 0.000000 -0.373219
v 0.911556 0.000000 -0.367333
v 0.922382 0.000000 -0.359906
v 0.932000 0.000000 -0.351000
v 0.940368 0.000000 -0.340677
v 0.947444 0.000000 -0.329000
v 0.953188 0.000000 -0.316031
v 0.957556 0.000000 -0.301833
v 0.960507 0.000000 -0.286469
v 0.962000 0.000000 -0.270000
v 0.587000 0.000000 -0.682000
v 0.017000 0.000000 -0.682000
v 0.017000 0.000000 -0.594000
v 0.253000 0.000000 -0.594000
v 0.253000 0.000000 0.000000
v 0.351000 0.000000 0.000000
v 0.351000 0.000000 -0.594000
v 0.587000 0.000000 -0.594000
vn 0.0000 1.0000 0.0000
vn 0.0000 0.0000 1.0000
usemtl None
s off
f 2//1 58//1 1//1
f 2//1 57//1 58//1
f 2//1 56//1 57//1
f 3//1 56//1 2//1
f 4//2 56//2 3//2
f 5//1 55//1 4//1
f 55//2 56//2 4//2
f 5//1 54//1 55//1
f 5//1 53//1 54//1
f 6//1 53//1 5//1
f 6//1 52//1 53//1
f 6//1 51//1 52//1
f 7//1 51//1 6//1
f 7//1 50//1 51//1
f 31//1 29//1 30//1
f 32//1 29//1 31//1
f 7//1 49//1 50//1
f 33//1 29//1 32//1
f 8//1 49//1 7//1
f 8//1 48//1 49//1
f 34//1 29//1 33//1
f 35//1 29//1 34//1
f 8//1 47//1 48//1
f 36//1 29//1 35//1
f 8//1 46//1 47//1
f 37//1 29//1 36//1
f 8//1 45//1 46//1
f 38//1 29//1 37//1
f 9//1 45//1 8//1
f 39//1 29//1 38//1
f 9//1 44//1 45//1
f 40//1 29//1 39//1
f 9//1 43//1 44//1
f 41//1 29//1 40//1
f 9//1 42//1 43//1
f 42//1 29//1 41//1
f 9//1 29//1 42//1
f 10//1 29//1 9//1
f 11//1 29//1 10//1
f 12//1 29//1 11//1
f 12//1 28//1 29//1
f 13//1 28//1 12//1
f 13//1 27//1 28//1
f 13//1 26//1 27//1
f 14//1 26//1 13//1
f 14//1 25//1 26//1
f 14//1 24//1 25//1
f 14//1 23//1 24//1
f 15//1 23//1 14//1
f 15//1 22//1 23//1
f 15//1 21//1 22//1
f 16//1 21//1 15//1
f 16//1 20//1 21//1
f 16//1 19//1 20//1
f 17//1 19//1 16//1
f 17//1 18//1 19//1
f 64//1 62//1 63//1
f 64//1 61//1 62//1
f 61//1 59//1 60//1
f 61//1 70//1 59//1
f 64//1 70//1 61//1
f 65//1 70//1 64//1
f 65//1 67//1 70//1
f 67//1 69//1 70//1
f 65//1 66//1 67//1
f 68//1 69//1 67//1
f 109//1 107//1 108//1
f 109//1 106//1 107//1
f 110//1 106//1 109//1
f 110//1 105//1 106//1
f 111//1 105//1 110//1
f 111//1 104//1 105//1
f 112//1 104//1 111//1
f 112//1 103//1 104//1
f 113//1 103//1 112//1
f 113//1 102//1 103//1
f 114//1 102//1 113//1
f 114//1 101//1 102//1
f 115//1 157//1 114//1
f 157//1 101//1 114//1
f 115//1 156//1 157//1
f 158//1 101//1 157//1
f 115//1 155//1 156//1
f 159//1 101//1 158//1
f 115//1 154//1 155//1
f 160//1 101//1 159//1
f 160//1 100//1 101//1
f 115//1 153//1 154//1
f 116//1 153//1 115//1
f 161//1 100//1 160//1
f 116//1 152//1 153//1
f 162//1 100//1 161//1
f 116//1 151//1 152//1
f 163//1 100//1 162//1
f 116//1 150//1 151//1
f 164//1 100//1 163//1
f 117//1 150//1 116//1
f 164//1 99//1 100//1
f 117//1 149//1 150//1
f 165//1 99//1 164//1
f 117//1 148//1 149//1
f 166//1 99//1 165//1
f 118//1 148//1 117//1
f 166//1 98//1 99//1
f 118//1 147//1 148//1
f 167//1 98//1 166//1
f 118//1 146//1 147//1
f 168//1 98//1 167//1
f 119//1 146//1 118//1
f 119//1 145//1 146//1
f 168//1 97//1 98//1
f 169//1 97//1 168//1
f 119//1 169//1 145//1
f 119//1 97//1 169//1
f 120//1 97//1 119//1
f 120//1 96//1 97//1
f 121//1 95//1 120//1
f 95//1 96//1 120//1
f 121//1 94//1 95//1
f 122//1 94//1 121//1
f 122//1 93//1 94//1
f 122//1 92//1 93//1
f 123//1 92//1 122//1
f 123//1 91//1 92//1
f 124//1 91//1 123//1
f 124//1 90//1 91//1
f 72//1 144//1 71//1
f 124//1 89//1 90//1
f 73//1 144//1 72//1
f 74//1 144//1 73//1
f 125//1 89//1 124//1
f 125//1 88//1 89//1
f 75//1 144//1 74//1
f 76//1 144//1 75//1
f 125//1 87//1 88//1
f 77//1 144//1 76//1
f 125//1 86//1 87//1
f 78//1 144//1 77//1
f 126//1 86//1 125//1
f 79//1 144//1 78//1
f 126//1 85//1 86//1
f 80//1 144//1 79//1
f 126//1 84//1 85//1
f 81//1 144//1 80//1
f 82//1 144//1 81//1
f 126//1 83//1 84//1
f 83//1 144//1 82//1
f 126//1 144//1 83//1
f 127//1 144//1 126//1
f 127//1 143//1 144//1
f 128//1 143//1 127//1
f 128//1 142//1 143//1
f 128//1 141//1 142//1
f 129//1 141//1 128//1
f 129//1 140//1 141//1
f 129//1 139//1 140//1
f 130//1 139//1 129//1
f 130//1 138//1 139//1
f 130//1 137//1 138//1
f 131//1 137//1 130//1
f 131//1 136//1 137//1
f 131//1 135//1 136//1
f 131//1 134//1 135//1
f 132//1 134//1 131//1
f 132//1 133//1 134//1
f 172//1 170//1 171//1
f 172//1 177//1 170//1
f 173//2 177//2 172//2
f 174//1 176//1 173//1
f 176//2 177//2 173//2
f 174//1 175//1 176//1
